<svg width="121" height="41" viewBox="0 0 121 41" fill="none" xmlns="http://www.w3.org/2000/svg">
<path d="M30.4094 14.8025C30.4094 13.9954 30.5657 13.2806 30.8783 12.6583C31.1909 12.0359 31.6276 11.5553 32.1884 11.2142C32.7492 10.8738 33.3973 10.7036 34.1328 10.7036C34.8407 10.7036 35.4727 10.8787 36.0289 11.2287C36.5851 11.5788 37.0188 12.0699 37.3321 12.7012C37.6447 13.3333 37.801 14.0538 37.801 14.8601V15.4735H32.3814C32.409 15.9598 32.5837 16.3536 32.9054 16.6551C33.2272 16.9566 33.6501 17.1073 34.1741 17.1073C34.5419 17.1073 34.882 17.023 35.1946 16.852C35.5072 16.6826 35.8474 16.3885 36.2151 15.9695L37.4424 17.2977C37.0195 17.7929 36.5323 18.1802 35.9807 18.4574C35.4291 18.7345 34.8269 18.8731 34.1741 18.8731C33.4295 18.8731 32.7721 18.7029 32.2021 18.3626C31.6322 18.0222 31.1909 17.5433 30.8783 16.9266C30.5657 16.3082 30.4094 15.6008 30.4094 14.8042V14.8025ZM35.8152 13.9565C35.7784 13.5286 35.6014 13.1737 35.2843 12.8917C34.9671 12.6096 34.5833 12.4694 34.1328 12.4694C33.6639 12.4694 33.2778 12.6056 32.9744 12.8779C32.671 13.1502 32.4825 13.51 32.409 13.9573H35.8152V13.9565Z" fill="white"/>
<path d="M43.7996 12.7896V15.8966C43.7996 16.1592 43.8571 16.3488 43.972 16.4655C44.0869 16.5822 44.2777 16.6405 44.5443 16.6405H46.2129V18.6535H44.365C43.556 18.6535 42.9309 18.4517 42.4896 18.0482C42.0483 17.6446 41.8276 17.0684 41.8276 16.3196V12.7896H40.0349V10.9224H41.8276V8.95239H43.7996V10.9224H46.668V12.7896H43.7996Z" fill="white"/>
<path d="M49.178 8.00507H51.15V11.6372H51.1776C51.6924 11.0148 52.3957 10.7037 53.2875 10.7037C53.8207 10.7037 54.2941 10.8406 54.7078 11.1121C55.1216 11.3852 55.4426 11.7693 55.6732 12.2653C55.903 12.7604 56.0179 13.3342 56.0179 13.9865V18.6544H54.0459V14.2637C54.0459 13.7483 53.9218 13.3447 53.6736 13.053C53.4254 12.7612 53.0852 12.6154 52.6531 12.6154C52.1842 12.6154 51.8165 12.7588 51.5499 13.0457C51.2833 13.3325 51.15 13.7288 51.15 14.2345V18.6544H49.178V8.00507Z" fill="white"/>
<path d="M58.045 14.8025C58.045 13.9954 58.2013 13.2806 58.5139 12.6583C58.8265 12.0359 59.2632 11.5553 59.824 11.2142C60.384 10.8738 61.0322 10.7036 61.7684 10.7036C62.4763 10.7036 63.1076 10.8787 63.6645 11.2287C64.2208 11.5788 64.6551 12.0699 64.9677 12.7012C65.2795 13.3333 65.4366 14.0538 65.4366 14.8601V15.4735H60.017C60.0446 15.9598 60.2193 16.3536 60.5411 16.6551C60.8628 16.9566 61.2865 17.1073 61.8098 17.1073C62.1767 17.1073 62.5177 17.023 62.8302 16.852C63.1428 16.6826 63.483 16.3885 63.8507 15.9695L65.078 17.2977C64.6551 17.7929 64.1679 18.1802 63.617 18.4574C63.0647 18.7345 62.4625 18.8731 61.8105 18.8731C61.0659 18.8731 60.4085 18.7029 59.8385 18.3626C59.2685 18.0222 58.8273 17.5433 58.5147 16.9266C58.2021 16.3082 58.0458 15.6008 58.0458 14.8042L58.045 14.8025ZM63.4508 13.9565C63.414 13.5286 63.2378 13.1737 62.9206 12.8917C62.6035 12.6096 62.2196 12.4694 61.7692 12.4694C61.3003 12.4694 60.9142 12.6056 60.61 12.8779C60.3066 13.1502 60.1182 13.51 60.0454 13.9573H63.4508V13.9565Z" fill="white"/>
<path d="M68.1394 10.9225H70.0287V11.6373H70.0562C70.3688 11.3066 70.6929 11.0684 71.0292 10.9225C71.3648 10.7758 71.7478 10.7029 72.1807 10.7029C72.815 10.7029 73.3621 10.8998 73.8217 11.2937C74.2814 11.6867 74.6032 12.2248 74.787 12.9055L72.9392 13.5473C72.7285 12.9152 72.291 12.5984 71.6291 12.5984C71.1334 12.5984 70.7557 12.7515 70.4983 13.0579C70.2409 13.3642 70.1122 13.7848 70.1122 14.3196V18.6528H68.1402V10.9225H68.1394Z" fill="white"/>
<path d="M76.4688 14.8025C76.4688 13.9954 76.625 13.2806 76.9369 12.6583C77.2494 12.0359 77.6869 11.5553 78.2469 11.2142C78.8077 10.8738 79.4559 10.7036 80.1913 10.7036C80.8992 10.7036 81.5313 10.8787 82.0883 11.2287C82.6445 11.5788 83.0788 12.0699 83.3914 12.7012C83.7032 13.3333 83.8595 14.0538 83.8595 14.8601V15.4735H78.4407C78.4676 15.9598 78.643 16.3536 78.9648 16.6551C79.2865 16.9566 79.7094 17.1073 80.2335 17.1073C80.6004 17.1073 80.9414 17.023 81.2539 16.852C81.5658 16.6826 81.9067 16.3885 82.2744 15.9695L83.5017 17.2977C83.0788 17.7929 82.5916 18.1802 82.04 18.4574C81.4884 18.7345 80.8862 18.8731 80.2342 18.8731C79.4888 18.8731 78.8322 18.7029 78.2622 18.3626C77.6922 18.0222 77.251 17.5433 76.9376 16.9266C76.6258 16.3082 76.4695 15.6008 76.4695 14.8042L76.4688 14.8025ZM81.8745 13.9565C81.8377 13.5286 81.6608 13.1737 81.3436 12.8917C81.0272 12.6096 80.6426 12.4694 80.1921 12.4694C79.724 12.4694 79.3379 12.6056 79.0337 12.8779C78.7303 13.1502 78.5419 13.51 78.4683 13.9573H81.8745V13.9565Z" fill="white"/>
<path d="M86.0935 16.0279V10.9224H88.0647V15.5465C88.0647 16.4898 88.506 16.9614 89.3894 16.9614C89.7847 16.9614 90.0996 16.8326 90.334 16.5741C90.5684 16.3172 90.6856 15.9744 90.6856 15.5457V10.9216H92.6569V18.6527H90.7676V17.9663H90.74C90.5378 18.2394 90.2597 18.4574 89.9057 18.6235C89.5518 18.7897 89.1817 18.8715 88.7956 18.8715C87.9314 18.8715 87.2649 18.6211 86.7968 18.1203C86.3279 17.6195 86.0935 16.9217 86.0935 16.0271V16.0279Z" fill="white"/>
<path d="M94.6848 10.9224H96.4231V11.5934H96.4507C96.6062 11.3309 96.8069 11.1291 97.0498 10.9881C97.2934 10.8471 97.5623 10.7758 97.8573 10.7758C98.4365 10.7758 98.9 11.0626 99.2493 11.6364H99.2769C99.6439 11.0626 100.15 10.7758 100.794 10.7758C101.326 10.7758 101.759 10.9751 102.089 11.3738C102.421 11.7725 102.586 12.2928 102.586 12.9346V18.6535H100.765V13.3001C100.765 13.0773 100.71 12.9071 100.6 12.7896C100.489 12.6729 100.333 12.6145 100.131 12.6145C99.9381 12.6145 99.7841 12.6802 99.6684 12.8114C99.5542 12.9427 99.496 13.1202 99.496 13.3439V18.6535H97.7722V13.3001C97.7722 13.0862 97.7194 12.9184 97.6136 12.7969C97.5079 12.6761 97.3585 12.6145 97.1655 12.6145C96.9632 12.6145 96.8016 12.6802 96.6828 12.8114C96.5633 12.9427 96.5035 13.1202 96.5035 13.3439V18.6535H94.6832V10.9224H94.6848Z" fill="white"/>
<path d="M32.6159 29.0475H30.6853V27.1804H32.6159V26.0426C32.6159 25.3619 32.8297 24.8246 33.2572 24.4307C33.6847 24.0377 34.2753 23.84 35.0292 23.84H37.1529V25.6925H35.2636C35.0706 25.6925 34.9235 25.7452 34.8224 25.8522C34.7212 25.9599 34.6707 26.1099 34.6707 26.3052V27.1804H37.5942V29.0475H34.6707V34.0508H32.6159V29.0475Z" fill="white"/>
<path d="M39.6213 30.1853C39.6213 29.3879 39.7776 28.6804 40.0902 28.0629C40.4028 27.4454 40.8418 26.964 41.4072 26.6188C41.9726 26.2736 42.6184 26.101 43.3447 26.101C44.0802 26.101 44.7306 26.2736 45.296 26.6188C45.8614 26.964 46.3004 27.4462 46.613 28.0629C46.9255 28.6804 47.0818 29.3879 47.0818 30.1853C47.0818 30.9827 46.9255 31.6894 46.613 32.3077C46.3004 32.9252 45.8614 33.4058 45.296 33.751C44.7306 34.0962 44.0802 34.2688 43.3447 34.2688C42.6184 34.2688 41.9726 34.0962 41.4072 33.751C40.8418 33.4058 40.4028 32.9244 40.0902 32.3077C39.7776 31.6894 39.6213 30.9819 39.6213 30.1853ZM45.1098 30.1853C45.1098 29.5046 44.9558 28.9722 44.6479 28.5872C44.3399 28.2031 43.9055 28.011 43.3447 28.011C42.7931 28.011 42.3633 28.2031 42.0553 28.5872C41.7473 28.9722 41.5933 29.5046 41.5933 30.1853C41.5933 30.866 41.7473 31.3985 42.0553 31.7826C42.3633 32.1675 42.7931 32.3588 43.3447 32.3588C43.8963 32.3588 44.3284 32.1643 44.641 31.7753C44.9535 31.3871 45.1098 30.8563 45.1098 30.1853Z" fill="white"/>
<path d="M49.2461 31.4244V26.319H51.2181V30.943C51.2181 31.8863 51.6594 32.358 52.542 32.358C52.9373 32.358 53.2521 32.2291 53.4866 31.9714C53.721 31.7137 53.8382 31.3709 53.8382 30.9422V26.3182H55.8102V34.0493H53.921V33.3637H53.8934C53.6911 33.636 53.413 33.854 53.0591 34.0201C52.7051 34.1862 52.3351 34.2681 51.949 34.2681C51.0848 34.2681 50.4183 34.0177 49.9494 33.5168C49.4805 33.016 49.2461 32.3183 49.2461 31.4236V31.4244Z" fill="white"/>
<path d="M58.389 26.319H60.3618V27.0483H60.3886C60.6836 26.7371 61.0008 26.5013 61.3401 26.3408C61.6803 26.1804 62.0664 26.1002 62.4993 26.1002C62.9766 26.1002 63.4225 26.2185 63.8362 26.4567C64.2499 26.6958 64.5862 27.0597 64.8429 27.5516C65.1003 28.0418 65.229 28.6521 65.229 29.3822V34.05H63.257V29.6594C63.257 29.1642 63.1375 28.7647 62.8984 28.4632C62.6594 28.1618 62.3146 28.0102 61.8642 28.0102C61.3953 28.0102 61.0268 28.1545 60.761 28.4406C60.4943 28.7274 60.3618 29.1245 60.3618 29.6294V34.0492H58.389V26.3182V26.319Z" fill="white"/>
<path d="M67.1051 30.1853C67.1051 29.4074 67.2476 28.7072 67.5326 28.0848C67.8176 27.4616 68.2175 26.9762 68.7324 26.6253C69.2472 26.2752 69.831 26.101 70.4837 26.101C71.3111 26.101 71.9593 26.3344 72.4281 26.8012H72.455V23.4024H74.4262V34.0509H72.6067V33.3799H72.5791C72.0367 33.9731 71.3288 34.2697 70.4562 34.2697C69.8118 34.2697 69.2357 34.0995 68.7255 33.7591C68.2152 33.4188 67.8169 32.9398 67.5319 32.3231C67.2469 31.7064 67.1044 30.9933 67.1044 30.1862L67.1051 30.1853ZM72.455 30.6805V29.6748C72.455 29.3831 72.3814 29.1108 72.2343 28.8571C72.088 28.6043 71.8827 28.4009 71.6207 28.2445C71.3586 28.0897 71.0668 28.0111 70.745 28.0111C70.2294 28.0111 69.8233 28.208 69.5245 28.6018C69.225 28.9957 69.0764 29.5233 69.0764 30.1845C69.0764 30.8361 69.2273 31.3612 69.5314 31.7591C69.8348 32.1578 70.2347 32.3572 70.7304 32.3572C71.2261 32.3572 71.639 32.1943 71.9646 31.8685C72.291 31.5427 72.4542 31.1456 72.4542 30.6789L72.455 30.6805Z" fill="white"/>
<path d="M76.923 31.9795C76.923 31.2599 77.1551 30.7007 77.6194 30.302C78.0829 29.9041 78.8582 29.6116 79.943 29.4268C80.5123 29.3304 80.9015 29.2201 81.1083 29.0994C81.3159 28.9778 81.4186 28.8141 81.4186 28.6099C81.4186 28.3765 81.3167 28.1918 81.1152 28.0556C80.9137 27.9195 80.6372 27.8514 80.2878 27.8514C79.8925 27.8514 79.55 27.977 79.2604 28.2307C78.9708 28.4843 78.7847 28.819 78.7019 29.2372L76.8671 28.7996C76.959 28.2744 77.1659 27.8068 77.4884 27.3984C77.8102 26.99 78.2139 26.6723 78.7019 26.443C79.1892 26.2144 79.717 26.1002 80.287 26.1002C81.2255 26.1002 81.974 26.3773 82.5356 26.9308C83.0956 27.4859 83.3768 28.225 83.3768 29.148V34.0492H81.6117V33.1886H81.5841C81.3726 33.529 81.0761 33.7932 80.6946 33.9828C80.3131 34.1724 79.8833 34.2672 79.4052 34.2672C78.9272 34.2672 78.4989 34.1708 78.1227 33.9763C77.7458 33.7818 77.4508 33.5095 77.2402 33.1594C77.0287 32.8085 76.923 32.4155 76.923 31.9779V31.9795ZM81.5013 31.1772V30.302H81.4745C81.3918 30.4487 81.2539 30.5646 81.0608 30.6529C80.8678 30.7396 80.5644 30.828 80.1507 30.9147C79.6358 31.0322 79.2819 31.1553 79.0888 31.2866C78.8958 31.4179 78.7992 31.6011 78.7992 31.8345C78.7992 32.0573 78.8835 32.2275 79.0543 32.345C79.2244 32.4617 79.4703 32.52 79.7921 32.52C80.0863 32.52 80.3667 32.4593 80.6333 32.3369C80.8999 32.2145 81.1114 32.05 81.2677 31.8417C81.424 31.6335 81.5021 31.4114 81.5021 31.178L81.5013 31.1772Z" fill="white"/>
<path d="M89.8582 28.1869V31.2939C89.8582 31.5557 89.9149 31.7461 90.0306 31.862C90.1455 31.9795 90.3355 32.0379 90.6029 32.0379H92.2715V34.0501H90.4236C89.6146 34.0501 88.9894 33.8483 88.5489 33.4447C88.1076 33.0411 87.887 32.4649 87.887 31.7161V28.1869H86.0942V26.319H87.887V24.3497H89.859V26.319H92.7273V28.1869H89.859H89.8582Z" fill="white"/>
<path d="M102.214 32.14V34.0501H95.0295V32.14H97.6359V28.2307H95.1667V26.3198H99.6079V32.1408H102.213L102.214 32.14ZM97.5945 23.0523H99.6217V25.1083H97.5945V23.0523Z" fill="white"/>
<path d="M104.104 30.1853C104.104 29.3879 104.26 28.6804 104.572 28.0629C104.884 27.4454 105.323 26.964 105.889 26.6188C106.454 26.2736 107.101 26.101 107.826 26.101C108.562 26.101 109.213 26.2736 109.778 26.6188C110.343 26.964 110.783 27.4462 111.095 28.0629C111.407 28.6804 111.563 29.3879 111.563 30.1853C111.563 30.9827 111.407 31.6894 111.095 32.3077C110.783 32.9252 110.344 33.4058 109.778 33.751C109.213 34.0962 108.562 34.2688 107.826 34.2688C107.101 34.2688 106.454 34.0962 105.889 33.751C105.324 33.4058 104.884 32.9244 104.572 32.3077C104.26 31.6894 104.104 30.9819 104.104 30.1853ZM109.592 30.1853C109.592 29.5046 109.438 28.9722 109.129 28.5872C108.821 28.2031 108.387 28.011 107.826 28.011C107.275 28.011 106.845 28.2031 106.537 28.5872C106.229 28.9722 106.075 29.5046 106.075 30.1853C106.075 30.866 106.228 31.3985 106.537 31.7826C106.845 32.1675 107.275 32.3588 107.826 32.3588C108.378 32.3588 108.81 32.1643 109.122 31.7753C109.435 31.3863 109.591 30.8563 109.591 30.1853H109.592Z" fill="white"/>
<path d="M113.661 26.319H115.632V27.0483H115.66C115.954 26.7371 116.271 26.5013 116.611 26.3408C116.95 26.1804 117.337 26.1002 117.769 26.1002C118.248 26.1002 118.693 26.2185 119.107 26.4567C119.521 26.6958 119.857 27.0597 120.114 27.5516C120.371 28.0418 120.5 28.6521 120.5 29.3822V34.05H118.528V29.6594C118.528 29.1642 118.408 28.7647 118.169 28.4632C117.93 28.1618 117.585 28.0102 117.134 28.0102C116.666 28.0102 116.298 28.1545 116.032 28.4406C115.765 28.7274 115.632 29.1245 115.632 29.6294V34.0492H113.661V26.3182V26.319Z" fill="white"/>
<path d="M11.6563 30.4317V40.1539L0.5 22.9161L11.6563 30.4317Z" fill="#18ABD3"/>
<path d="M22.8133 22.9161L11.6562 40.1539V30.4317L22.8133 22.9161Z" fill="#6B7ABA"/>
<path d="M22.8133 20.4874L11.6562 13.7815V28.0038L22.8133 20.4874Z" fill="#A566A6"/>
<path d="M22.8133 20.4874L11.6562 6.10352e-05V13.7815L22.8133 20.4874Z" fill="#F08A78"/>
<path d="M11.6563 6.10352e-05V13.7815L0.5 20.4874L11.6563 6.10352e-05Z" fill="#FFEB5C"/>
<path d="M11.6563 13.7815V28.0038L0.5 20.4874L11.6563 13.7815Z" fill="#58B36F"/>
</svg>
