<?xml version="1.0" encoding="UTF-8"?>
<svg id="Layer_1" data-name="Layer 1" xmlns="http://www.w3.org/2000/svg" xmlns:xlink="http://www.w3.org/1999/xlink" viewBox="0 0 400.468 396.68">
  <defs>
    <style>
      .cls-1, .cls-2 {
        fill: #fff;
      }

      .cls-3 {
        fill: #37374d;
      }

      .cls-4 {
        fill: #f9e4b5;
      }

      .cls-4, .cls-5 {
        stroke-width: 5px;
      }

      .cls-4, .cls-5, .cls-6 {
        stroke: #37374d;
        stroke-linecap: round;
        stroke-linejoin: round;
      }

      .cls-5 {
        fill: url(#linear-gradient);
      }

      .cls-7 {
        fill: url(#linear-gradient-2);
      }

      .cls-8 {
        opacity: .5;
      }

      .cls-2 {
        opacity: .9;
      }

      .cls-6 {
        fill: none;
        stroke-width: 3px;
      }
    </style>
    <linearGradient id="linear-gradient" x1="182.454" y1="390.424" x2="182.454" y2="2.5" gradientUnits="userSpaceOnUse">
      <stop offset="0" stop-color="#856eb1"/>
      <stop offset=".443" stop-color="#f16d89"/>
      <stop offset=".922" stop-color="#ffe3ae"/>
    </linearGradient>
    <linearGradient id="linear-gradient-2" x1="200.118" y1="289.104" x2="200.118" y2="120.702" gradientUnits="userSpaceOnUse">
      <stop offset="0" stop-color="#adddd5"/>
      <stop offset=".443" stop-color="#728ac5"/>
      <stop offset=".97" stop-color="#9075b4"/>
    </linearGradient>
  </defs>
  <circle class="cls-2" cx="212.251" cy="205.492" r="188.217"/>
  <path class="cls-4" d="m349.539,373.964h-51.698l-51.967-55.834-8.212,7.643,44.853,48.191h-11.929c-3.098,0-5.609,2.511-5.609,5.609s2.511,5.609,5.609,5.609h78.953c3.098,0,5.609-2.511,5.609-5.609s-2.511-5.609-5.609-5.609Z"/>
  <path class="cls-4" d="m289.39,382.961h-52.313l-42.023-64.689-9.408,6.112,38.053,58.577h-18.262c-3.098,0-5.609,2.511-5.609,5.609s2.511,5.609,5.609,5.609h83.953c3.098,0,5.609-2.511,5.609-5.609s-2.511-5.609-5.609-5.609Z"/>
  <path class="cls-5" d="m276.373,2.5c36.58,0,51.211,20.618,57.197,51.211,5.986,30.594,20.193,113.812,28.839,147.066l-10.216-12.054s-.665,32.589-11.306,60.522c-10.641,27.933-44.276,78.469-103.308,78.469-60.344,0-89.566-19.277-89.566-19.277,0,0-44.649,58.513-69.257,75.14-24.608,16.627-17.466-2.259-17.466-2.259,0,0-43.305,18.322-21.653-2.271,0,0-46.677,11.255-35.37,1.204,0,0,75.243-41.221,118.473-88.442,0,0-5.321-33.254,51.876-97.102,40.552-45.267,59.467-75.891,51.211-98.765-2.003-5.55-12.009-9.365-16.295-14.299,0,0,21.615-13.302,21.615-23.943,0-19.333-1.037-55.202,45.226-55.202Z"/>
  <g class="cls-8">
    <path class="cls-1" d="m282.119,84.358c.056-.155.089-.298.084-.439-6.45,3.247-15.791,1.397-22.108.145-.651-.129-1.269-.251-1.844-.36-10.87-2.056-17.521-3.1-27.81-.679-5.224,1.229-10.448,1.285-14.451,1.019.604.417,1.215.832,1.825,1.244,2.038,1.374,4.105,2.771,5.865,4.304,6.301,3.184,14.397,5.987,23.386,5.987,18.234,0,33.64-7.279,35.052-11.22Z"/>
    <path class="cls-1" d="m229.754,80.105c10.881-2.561,17.785-1.48,29.054.651.584.11,1.21.234,1.87.365,5.597,1.109,13.752,2.727,19.29.517-5.977-5.257-11.482-11.839-16.39-17.707-7.08-8.466-13.769-16.461-19.183-17.099-3.656-.431-6.791,1.251-9.299,5.001-.763,1.14-1.354,2.312-1.797,3.328,0,.437,0,.868,0,1.291v1.248c0,8.893-11.821,18.496-18.521,23.225,3.917.357,9.504.467,14.974-.821Z"/>
  </g>
  <path class="cls-6" d="m231.148,57.702s3.422-13.575,13.769-12.358c10.347,1.217,22.486,23.787,38.067,36.598,5.947,4.889-13.984,15.137-35.57,15.137s-37.881-15.434-37.881-15.434c0,0,10.564,2.355,20.911-.079s16.992-1.498,28.432.665c6.294,1.19,17.576,3.99,24.108-.289"/>
  <path class="cls-6" d="m249.74,56.713s-2.949,1.461-4.922,4.136"/>
  <circle class="cls-3" cx="292.279" cy="49.406" r="10.075"/>
  <circle class="cls-1" cx="289.129" cy="47.255" r="4.962"/>
  <path class="cls-6" d="m122.739,291.811c61.489-27.717,133.664-71.425,147.753-102.211,14.089-30.786.834-59.195-15.275-68.461-18.789-10.808-43.097,26.482-43.097,26.482"/>
  <path class="cls-7" d="m269.169,189.001c14.359-31.378-.258-58.253-14.659-66.537-11.786-6.78-26.424,7.502-34.666,17.46-9.382,16.754-24.557,35.528-43.325,56.478-47.074,52.548-51.201,84.171-51.347,92.702,60.363-27.565,130.281-70.129,143.997-100.103Z"/>
</svg>