<?xml version="1.0" encoding="UTF-8" standalone="no"?>
<svg xmlns="http://www.w3.org/2000/svg" width="271.83878" height="290.86677" viewBox="-.2 -.2 27.183878 29.086677">
  <path d="M14.343534-.1c-2.185152 0-5.0526438.78617536-7.3603395 2.6414797-2.3076957 1.8553044-4.15625 4.6912103-4.15625 8.2500003 0 2.371072.493163 4.339001 1.9263676 6.295801 1.4332046 1.9568 3.8909194 3.922949 6.4486329 3.922949 2.91094 0 5.6875-2.088002 5.6875-5.09375 0-.633932-.0968-1.271629-.40625-1.84375-.309445-.572121-1.01954-1.128243-1.8125-1.0625-.523695.01622-.98539.507568-.969025 1.031259.01637.52369.507839.98525 1.031525.968741.07013.129653.15625.512377.15625.90625 0 1.728432-1.72466 3.09375-3.6875 3.09375-1.8002283 0-3.3688753-1.037972-4.5312505-2.625-1.1623752-1.587028-1.84375-3.692736-1.84375-5.59375 0-2.8659506 1.4778282-5.1119947 3.4375-6.6875003 1.9596725-1.5755056 4.6093925-2.7501094 7.3938465-2.7501094 4.556775 0 6.12658.9436788 7.825013 1.9319338 1.237079.7198105 2.417167 2.0089773 3.400575 2.9815915-.666885-1.4572683-2.05216-3.0484112-3.136133-3.7993294C22.7332 1.7652433 21.48554 1.074122 19.215231.46579444 18.021093.14582611 16.271077-.1 14.343534-.1z" fill="#FFF" font-family="Sans" font-weight="400" overflow="visible" style="text-indent:0;text-align:start;line-height:normal;text-transform:none;block-progression:tb;marker:none;-inkscape-font-specification:Sans"/>
  <path d="M17.983195 8.1039797c-4.822251 0-7.148108 3.3092133-7.21875 5.8125003-.02377.842281.103425 1.556361.46875 2.125.365325.568639 1.047543.950492 1.71875.90625.523692-.008.99283-.49194.984647-1.015629-.0082-.52369-.49221-.992696-1.015897-.984371-.05965-.09284-.172277-.400808-.15625-.96875.03716-1.316733 1.288041-3.875 5.21875-3.875 4.006591 0 6.5 3.566586 6.5 6.65625 0 2.968371-1.153908 5.508266-3.28125 7.34375-2.127342 1.835484-5.320249 3.254803-9.372355 3.254803-3.6575383 0-6.0700778-1.463022-8.0048042-2.859618C2.4291571 23.491721.80958362 20.821677-.10000027 18.81441c.25578281 2.308476 1.34494867 4.863536 2.89040547 6.492938 1.9387327 2.044039 5.1045841 3.479329 9.2680268 3.479329 4.432774 0 7.902582-.979581 10.456013-3.182697 2.553431-2.203116 3.96875-5.347471 3.96875-8.84375 0-4.159976-3.320171-8.6562503-8.5-8.6562503z" fill="#FFF" font-family="Sans" font-weight="400" overflow="visible" style="text-indent:0;text-align:start;line-height:normal;text-transform:none;block-progression:tb;marker:none;-inkscape-font-specification:Sans"/>
</svg>