<svg xmlns="http://www.w3.org/2000/svg" width="44" height="44" viewBox="0 0 44 44">
  <g id="Group_90" data-name="Group 90" transform="translate(-665 -968.828)">
    <circle id="Ellipse_1" data-name="Ellipse 1" cx="22" cy="22" r="22" transform="translate(665 968.828)" fill="#fff" opacity="0.545"/>
    <g id="legal-canary" transform="translate(668.788 980.471)">
      <path id="Path_33" data-name="Path 33" d="M31.8,1.569A3.27,3.27,0,0,0,29.279.054c-1.889-.257-4.4,2.83-5.243,3.231a50.7,50.7,0,0,0-6.016,3.2c-4.125,2.431-9.655,6.2-9.655,6.2h2.378L.258,18.119l1.432.058L0,19.263a4.531,4.531,0,0,0,1.49-.058c.659-.172.745-.315.745-.315l.888.228s6.331-4.317,8.709-4.774,6.646,1.761,6.646,1.761a4.3,4.3,0,0,0,.373,1.67,7.576,7.576,0,0,0,2.206,1.543,1.357,1.357,0,0,1,.559.7,2.313,2.313,0,0,0-.787.156.546.546,0,0,0-.286.429,4.258,4.258,0,0,1,2.206-.2c1.691.114,1.805.371,1.805.371a1.075,1.075,0,0,0-.429-.571c-.3-.156-1.151-.186-1.49-.457s-2.564-2.2-2.492-3.173a2.744,2.744,0,0,1,1.088-2.03c.5-.357,4.083-1.744,6.1-3.6,1.719-1.573,2.693-5.918,3.494-6.718a9.4,9.4,0,0,1,2.921-1.457Zm-2.092.619a.448.448,0,1,1,.448-.448A.448.448,0,0,1,29.708,2.188Z" transform="translate(0 -0.039)" fill="#26293b"/>
    </g>
  </g>
</svg>
