<svg height="44" viewBox="0 0 44 44" width="44" xmlns="http://www.w3.org/2000/svg"><circle cx="22" cy="22" fill="#fff" opacity=".545" r="22"/><path d="m31.8 1.569a3.27 3.27 0 0 0 -2.521-1.515c-1.889-.257-4.4 2.83-5.243 3.231a50.7 50.7 0 0 0 -6.016 3.2c-4.125 2.431-9.655 6.2-9.655 6.2h2.378l-10.485 5.434 1.432.058-1.69 1.086a4.531 4.531 0 0 0 1.49-.058c.659-.172.745-.315.745-.315l.888.228s6.331-4.317 8.709-4.774 6.646 1.761 6.646 1.761a4.3 4.3 0 0 0 .373 1.67 7.576 7.576 0 0 0 2.206 1.543 1.357 1.357 0 0 1 .559.7 2.313 2.313 0 0 0 -.787.156.546.546 0 0 0 -.286.429 4.258 4.258 0 0 1 2.206-.2c1.691.114 1.805.371 1.805.371a1.075 1.075 0 0 0 -.429-.571c-.3-.156-1.151-.186-1.49-.457s-2.564-2.2-2.492-3.173a2.744 2.744 0 0 1 1.088-2.03c.5-.357 4.083-1.744 6.1-3.6 1.719-1.573 2.693-5.918 3.494-6.718a9.4 9.4 0 0 1 2.921-1.457zm-2.092.619a.448.448 0 1 1 .448-.448.448.448 0 0 1 -.448.448z" fill="#26293b" transform="translate(3.788 11.604)"/></svg>