<svg
  xmlns="http://www.w3.org/2000/svg"
  width="121.576"
  height="442.148"
  viewBox="0 0 121.576 442.148"
>
  <g transform="translate(16.558 126.411)">
    <path
      d="M160.255-25.763,114.328,93.124Z"
      transform="translate(-55.704 -0.98)"
      fill="none"
      stroke="#fff"
      stroke-miterlimit="10"
      stroke-width="1"
    />
    <path
      d="M2.241,324.03l89.9-120.594Z"
      transform="translate(5.677 -10.98)"
      fill="none"
      stroke="#fff"
      stroke-miterlimit="10"
      stroke-width="1"
    />
    <path
      d="M214.424,73.827,122.57-25.5Z"
      transform="translate(-109.873 -100.57)"
      fill="none"
      stroke="#fff"
      stroke-miterlimit="10"
      stroke-width="1"
    />
    <path
      d="M122.57,108.9,146.554-25.5Z"
      transform="translate(-138.636 -100.57)"
      fill="none"
      stroke="#fff"
      stroke-miterlimit="10"
      stroke-width="1"
      opacity="0.407"
    />
    <path
      d="M122.57-25.5l74.69,73.207Z"
      transform="translate(-138.636 33.829)"
      fill="none"
      stroke="#fff"
      stroke-miterlimit="10"
      stroke-width="1"
      opacity="0.407"
    />
    <path
      d="M141.84,67.114,122.162-72.337Z"
      transform="translate(-133.636 248.553)"
      fill="none"
      stroke="#fff"
      stroke-miterlimit="10"
      stroke-width="1"
      opacity="0.407"
    />
    <path
      d="M122.57,9.569,243.187-25.5Z"
      transform="translate(-138.636 -1.242)"
      fill="none"
      stroke="#fff"
      stroke-miterlimit="10"
      stroke-width="1"
      opacity="0.407"
    />
    <path
      d="M122.57-25.5,231.453-10.118Z"
      transform="translate(-133.636 202.575)"
      fill="none"
      stroke="#fff"
      stroke-miterlimit="10"
      stroke-width="1"
      opacity="0.407"
    />
    <path
      d="M150.093,74.549,114.328-25.763Z"
      transform="translate(-52.276 117.907)"
      fill="none"
      stroke="#fff"
      stroke-miterlimit="10"
      stroke-width="1"
    />
    <path
      d="M122.57,70.038,192.261-25.5Z"
      transform="translate(-133.636 107.036)"
      fill="none"
      stroke="#fff"
      stroke-miterlimit="10"
      stroke-width="1"
      opacity="0.407"
    />
  </g>
</svg>
