<svg xmlns="http://www.w3.org/2000/svg" width="51.962" height="60" viewBox="0 0 51.962 60">
  <path id="Path_105" data-name="Path 105" d="M25.981,0,0,15V45L25.981,60,51.962,45V15ZM25.4,27.834l-2.711-4.7L25.4,21.512Zm-1.01.581-5.363-3.1,2.66-1.584Zm-.581,1H12.158L17.885,26Zm0,1.163-5.959,3.437-5.712-3.437Zm.581,1.01-2.725,4.724L18.99,34.709Zm1.01.581v6.4l-2.74-1.65Zm1.163,0,2.74,4.746-2.74,1.65Zm1.01-.581,5.4,3.118L30.3,36.315Zm.581-1.01H39.826l-5.712,3.437Zm0-1.163L34.077,26,39.8,29.419Zm-.581-1,2.7-4.68,2.66,1.584Zm-1.01-.581V21.512l2.711,1.621Zm0-7.674V3.372L33.568,15.7l-3.714,6.432Zm-1.163,0-3.292,1.969L18.394,15.7,25.4,3.379Zm-4.3,2.558-3.227,1.933L14.433,22.66l3.3-5.792ZM16.73,25.334l-5.792,3.459,2.914-5.116ZM16.7,34.688,13.852,36.33l-2.907-5.109Zm1.141.683,3.241,1.948-3.358,5.814L14.433,37.34Zm4.237,2.551,3.321,2V56.628L18.394,44.31Zm4.484,2,3.321-2,3.685,6.388L26.563,56.628V39.92Zm4.317-2.6,3.241-1.948,3.408,1.969-3.292,5.792Zm4.382-2.631,5.749-3.459L38.1,36.33Zm-.036-9.353L38.1,23.67l2.914,5.116Zm-1.141-.683-3.227-1.926,3.379-5.858,3.292,5.792Zm.828-8.953,3.328-5.77L48.91,16.09,38.539,22.078Zm-.669-1.17L28.394,4.251l8.837,5.1Zm-16.526,0L14.731,9.353l8.837-5.1Zm-.669,1.17-3.626,6.381L3.052,16.09,13.721,9.927Zm-4.2,7.391-3.6,6.33H2.471V17.1ZM2.471,30.581H9.251l3.6,6.33L2.471,42.9Zm10.952,7.34L17.049,44.3l-3.328,5.77L3.052,43.91Zm4.3,7.551,5.843,10.276-8.83-5.094Zm16.526,0,2.987,5.174-8.837,5.1Zm.669-1.17,3.626-6.381L48.91,43.91,38.241,50.073Zm4.2-7.391,3.6-6.33h6.781V42.9Zm10.378-7.493H42.711l-3.6-6.33L49.491,17.1Z" fill="#26293b"/>
</svg>
