<svg height="60" viewBox="0 0 51.962 60" width="51.962" xmlns="http://www.w3.org/2000/svg"><path d="m25.981 0-25.981 15v30l25.981 15 25.981-15v-30zm-.581 27.834-2.711-4.7 2.711-1.622zm-1.01.581-5.363-3.1 2.66-1.584zm-.581 1h-11.651l5.727-3.415zm0 1.163-5.959 3.437-5.712-3.437zm.581 1.01-2.725 4.724-2.675-1.603zm1.01.581v6.4l-2.74-1.65zm1.163 0 2.74 4.746-2.74 1.65zm1.01-.581 5.4 3.118-2.673 1.609zm.581-1.01h11.672l-5.712 3.437zm0-1.163 5.923-3.415 5.723 3.419zm-.581-1 2.7-4.68 2.66 1.584zm-1.01-.581v-6.322l2.711 1.621zm0-7.674v-16.788l7.005 12.328-3.714 6.432zm-1.163 0-3.292 1.969-3.714-6.429 7.006-12.321zm-4.3 2.558-3.227 1.933-3.44-1.991 3.3-5.792zm-4.37 2.616-5.792 3.459 2.914-5.116zm-.03 9.354-2.848 1.642-2.907-5.109zm1.141.683 3.241 1.948-3.358 5.814-3.291-5.793zm4.237 2.551 3.321 2v16.706l-7.005-12.318zm4.484 2 3.321-2 3.685 6.388-7.005 12.318v-16.708zm4.317-2.6 3.241-1.948 3.408 1.969-3.292 5.792zm4.382-2.631 5.749-3.459-2.91 5.098zm-.036-9.353 2.875-1.668 2.914 5.116zm-1.141-.683-3.227-1.926 3.379-5.858 3.292 5.792zm.828-8.953 3.328-5.77 10.67 6.158-10.371 5.988zm-.669-1.17-5.849-10.281 8.837 5.1zm-16.526 0-2.986-5.179 8.837-5.1zm-.669 1.17-3.626 6.381-10.37-5.993 10.669-6.163zm-4.2 7.391-3.6 6.33h-6.777v-12.323zm-10.377 7.488h6.78l3.6 6.33-10.38 5.989zm10.952 7.34 3.626 6.379-3.328 5.77-10.669-6.16zm4.3 7.551 5.843 10.276-8.83-5.094zm16.526 0 2.987 5.174-8.837 5.1zm.669-1.17 3.626-6.381 10.366 5.989-10.669 6.163zm4.2-7.391 3.6-6.33h6.781v12.319zm10.378-7.493h-6.785l-3.6-6.33 10.38-5.988z" fill="#26293b"/></svg>