<svg xmlns="http://www.w3.org/2000/svg" width="37.164" height="59.322" viewBox="0 0 37.164 59.322">
  <path id="Path_32" data-name="Path 32" d="M40.429,53.986,59.011,79.454,77.593,53.986,59.011,65.09ZM57.813,73.75l-8.52-11.677,8.49,5.074.031.018Zm2.394-6.585.032-.019,8.49-5.074L60.208,73.751ZM77.593,51.6,59.011,20.132,40.429,51.6,59.011,62.7ZM60.208,26.867,72.859,48.288,60.208,42.926Zm0,18.66L73.59,51.2l-13.382,8ZM57.813,59.195l-13.381-8,13.381-5.672Zm0-16.269-12.65,5.363,12.65-21.42Z" transform="translate(-40.429 -20.132)" fill="#26293b"/>
</svg>
