<svg height="59.322" viewBox="0 0 37.164 59.322" width="37.164" xmlns="http://www.w3.org/2000/svg"><path d="m40.429 53.986 18.582 25.468 18.582-25.468-18.582 11.104zm17.384 19.764-8.52-11.677 8.49 5.074.031.018zm2.394-6.585.032-.019 8.49-5.074-8.521 11.679zm17.386-15.565-18.582-31.468-18.582 31.468 18.582 11.1zm-17.385-24.733 12.651 21.421-12.651-5.362zm0 18.66 13.382 5.673-13.382 8zm-2.395 13.668-13.381-8 13.381-5.672zm0-16.269-12.65 5.363 12.65-21.42z" fill="#26293b" transform="translate(-40.429 -20.132)"/></svg>