<svg width="182" height="58" viewBox="0 0 182 58" fill="none" xmlns="http://www.w3.org/2000/svg">
<g clip-path="url(#clip0_511_494)">
<path d="M44.9505 21.3814C44.9505 20.2156 45.1883 19.1831 45.6638 18.2841C46.1393 17.3852 46.8036 16.691 47.6567 16.1982C48.5098 15.7066 49.4958 15.4608 50.6146 15.4608C51.6915 15.4608 52.653 15.7136 53.4991 16.2193C54.3452 16.725 55.0049 17.4343 55.4816 18.3462C55.9571 19.2592 56.1948 20.2998 56.1948 21.4645V22.3507H47.9504C47.9923 23.053 48.2581 23.6219 48.7476 24.0573C49.237 24.4928 49.8804 24.7105 50.6776 24.7105C51.237 24.7105 51.7544 24.5888 52.2299 24.3418C52.7054 24.0971 53.2229 23.6722 53.7823 23.067L55.6494 24.9856C55.0061 25.7008 54.2648 26.2603 53.4257 26.6607C52.5866 27.061 51.6705 27.2612 50.6776 27.2612C49.5447 27.2612 48.5448 27.0153 47.6777 26.5237C46.8106 26.0321 46.1393 25.3403 45.6638 24.4495C45.1883 23.5563 44.9505 22.5344 44.9505 21.3838V21.3814ZM53.174 20.1594C53.118 19.5413 52.8488 19.0286 52.3663 18.6213C51.8838 18.2139 51.2999 18.0114 50.6146 18.0114C49.9014 18.0114 49.314 18.2081 48.8524 18.6014C48.3909 18.9947 48.1042 19.5144 47.9923 20.1605H53.174V20.1594Z" fill="white"/>
<path d="M65.3204 18.4738V22.9617C65.3204 23.341 65.4078 23.6149 65.5826 23.7835C65.7574 23.952 66.0476 24.0363 66.4532 24.0363H68.9916V26.944H66.1805C64.9498 26.944 63.9988 26.6525 63.3274 26.0696C62.6561 25.4866 62.3205 24.6544 62.3205 23.5728V18.4738H59.5933V15.7768H62.3205V12.9312H65.3204V15.7768H69.6838V18.4738H65.3204Z" fill="white"/>
<path d="M73.5018 11.5628H76.5017V16.8092H76.5437C77.3269 15.9103 78.3967 15.4608 79.7533 15.4608C80.5645 15.4608 81.2848 15.6586 81.9141 16.0507C82.5434 16.4452 83.0318 17 83.3826 17.7164C83.7322 18.4316 83.907 19.2604 83.907 20.2027V26.9451H80.9071V20.603C80.9071 19.8586 80.7183 19.2756 80.3407 18.8542C79.9631 18.4328 79.4457 18.2221 78.7883 18.2221C78.0751 18.2221 77.5157 18.4293 77.1101 18.8437C76.7045 19.2581 76.5017 19.8305 76.5017 20.5609V26.9451H73.5018V11.5628Z" fill="white"/>
<path d="M86.9908 21.3814C86.9908 20.2156 87.2286 19.1831 87.7041 18.2841C88.1796 17.3852 88.8439 16.691 89.697 16.1982C90.549 15.7066 91.535 15.4608 92.655 15.4608C93.7318 15.4608 94.6922 15.7136 95.5395 16.2193C96.3856 16.725 97.0464 17.4343 97.5219 18.3462C97.9963 19.2592 98.2352 20.2998 98.2352 21.4645V22.3507H89.9907C90.0327 23.053 90.2984 23.6219 90.7879 24.0573C91.2774 24.4928 91.9219 24.7105 92.7179 24.7105C93.2762 24.7105 93.7948 24.5888 94.2703 24.3418C94.7458 24.0971 95.2633 23.6722 95.8227 23.067L97.6897 24.9856C97.0464 25.7008 96.3052 26.2603 95.4672 26.6607C94.6269 27.061 93.7109 27.2612 92.7191 27.2612C91.5862 27.2612 90.5863 27.0153 89.7192 26.5237C88.8521 26.0321 88.1808 25.3403 87.7053 24.4495C87.2298 23.5563 86.992 22.5344 86.992 21.3838L86.9908 21.3814ZM95.2143 20.1594C95.1584 19.5413 94.8903 19.0286 94.4078 18.6213C93.9253 18.2139 93.3414 18.0114 92.6561 18.0114C91.9429 18.0114 91.3555 18.2081 90.8928 18.6014C90.4313 18.9947 90.1446 19.5144 90.0339 20.1605H95.2143V20.1594Z" fill="white"/>
<path d="M102.347 15.7768H105.221V16.8092H105.263C105.738 16.3317 106.231 15.9875 106.743 15.7768C107.253 15.5649 107.836 15.4596 108.495 15.4596C109.46 15.4596 110.292 15.744 110.991 16.3129C111.69 16.8807 112.18 17.6579 112.46 18.6412L109.649 19.5683C109.328 18.6552 108.663 18.1975 107.656 18.1975C106.902 18.1975 106.327 18.4188 105.935 18.8612C105.544 19.3037 105.348 19.9112 105.348 20.6838V26.9428H102.348V15.7768H102.347Z" fill="white"/>
<path d="M115.018 21.3814C115.018 20.2156 115.255 19.1831 115.73 18.2841C116.205 17.3852 116.871 16.691 117.723 16.1982C118.576 15.7066 119.562 15.4608 120.681 15.4608C121.758 15.4608 122.719 15.7136 123.566 16.2193C124.412 16.725 125.073 17.4343 125.549 18.3462C126.023 19.2592 126.261 20.2998 126.261 21.4645V22.3507H118.018C118.058 23.053 118.325 23.6219 118.815 24.0573C119.304 24.4928 119.948 24.7105 120.745 24.7105C121.303 24.7105 121.822 24.5888 122.297 24.3418C122.771 24.0971 123.29 23.6722 123.85 23.067L125.717 24.9856C125.073 25.7008 124.332 26.2603 123.493 26.6607C122.654 27.061 121.738 27.2612 120.746 27.2612C119.612 27.2612 118.613 27.0153 117.746 26.5237C116.879 26.0321 116.208 25.3403 115.731 24.4495C115.257 23.5563 115.019 22.5344 115.019 21.3838L115.018 21.3814ZM123.241 20.1594C123.185 19.5413 122.916 19.0286 122.433 18.6213C121.952 18.2139 121.367 18.0114 120.682 18.0114C119.97 18.0114 119.382 18.2081 118.92 18.6014C118.458 18.9947 118.171 19.5144 118.06 20.1605H123.241V20.1594Z" fill="white"/>
<path d="M129.659 23.1513V15.7768H132.658V22.456C132.658 23.8185 133.329 24.4998 134.673 24.4998C135.275 24.4998 135.754 24.3137 136.11 23.9403C136.467 23.5692 136.645 23.0741 136.645 22.4548V15.7756H139.644V26.9428H136.77V25.9513H136.728C136.42 26.3458 135.997 26.6607 135.459 26.9006C134.92 27.1406 134.357 27.2588 133.77 27.2588C132.455 27.2588 131.441 26.8971 130.729 26.1737C130.016 25.4503 129.659 24.4424 129.659 23.1502V23.1513Z" fill="white"/>
<path d="M142.729 15.7768H145.373V16.746H145.415C145.652 16.3668 145.957 16.0753 146.327 15.8716C146.697 15.668 147.106 15.5649 147.555 15.5649C148.436 15.5649 149.141 15.9793 149.673 16.8081H149.715C150.273 15.9793 151.043 15.5649 152.022 15.5649C152.832 15.5649 153.491 15.8529 153.993 16.4288C154.498 17.0047 154.748 17.7562 154.748 18.6833V26.9439H151.979V19.2112C151.979 18.8893 151.895 18.6435 151.727 18.4738C151.558 18.3052 151.321 18.2209 151.014 18.2209C150.72 18.2209 150.486 18.3158 150.31 18.5054C150.136 18.695 150.048 18.9514 150.048 19.2744V26.9439H147.426V19.2112C147.426 18.9022 147.345 18.6599 147.184 18.4843C147.023 18.3099 146.796 18.2209 146.503 18.2209C146.195 18.2209 145.949 18.3158 145.768 18.5054C145.586 18.695 145.496 18.9514 145.496 19.2744V26.9439H142.726V15.7768H142.729Z" fill="white"/>
<path d="M48.307 41.9576H45.3701V39.2606H48.307V37.6171C48.307 36.6339 48.6322 35.8578 49.2825 35.2889C49.9328 34.7212 50.8314 34.4355 51.9782 34.4355H55.2088V37.1114H52.3348C52.0411 37.1114 51.8174 37.1875 51.6635 37.342C51.5097 37.4977 51.4328 37.7143 51.4328 37.9964V39.2606H55.8801V41.9576H51.4328V49.1846H48.307V41.9576Z" fill="white"/>
<path d="M58.9639 43.601C58.9639 42.4491 59.2017 41.4272 59.6772 40.5353C60.1527 39.6433 60.8205 38.948 61.6806 38.4493C62.5407 37.9507 63.5232 37.7014 64.628 37.7014C65.7469 37.7014 66.7364 37.9507 67.5965 38.4493C68.4566 38.948 69.1244 39.6445 69.5999 40.5353C70.0754 41.4272 70.3131 42.4491 70.3131 43.601C70.3131 44.7528 70.0754 45.7735 69.5999 46.6667C69.1244 47.5586 68.4566 48.2528 67.5965 48.7514C66.7364 49.2501 65.7469 49.4994 64.628 49.4994C63.5232 49.4994 62.5407 49.2501 61.6806 48.7514C60.8205 48.2528 60.1527 47.5575 59.6772 46.6667C59.2017 45.7735 58.9639 44.7516 58.9639 43.601ZM67.3133 43.601C67.3133 42.6177 67.079 41.8486 66.6105 41.2926C66.142 40.7378 65.4812 40.4604 64.628 40.4604C63.7889 40.4604 63.1351 40.7378 62.6666 41.2926C62.1981 41.8486 61.9638 42.6177 61.9638 43.601C61.9638 44.5842 62.1981 45.3533 62.6666 45.9081C63.1351 46.4642 63.7889 46.7404 64.628 46.7404C65.4672 46.7404 66.1245 46.4595 66.6 45.8976C67.0755 45.3369 67.3133 44.5702 67.3133 43.601Z" fill="white"/>
<path d="M73.6056 45.3908V38.0162H76.6055V44.6954C76.6055 46.058 77.2768 46.7392 78.6194 46.7392C79.2208 46.7392 79.6998 46.5531 80.0564 46.1809C80.413 45.8087 80.5913 45.3135 80.5913 44.6943V38.0151H83.5912V49.1822H80.7172V48.1919H80.6753C80.3676 48.5852 79.9445 48.9001 79.4061 49.1401C78.8676 49.38 78.3047 49.4983 77.7173 49.4983C76.4027 49.4983 75.3887 49.1366 74.6755 48.4131C73.9622 47.6897 73.6056 46.6819 73.6056 45.3896V45.3908Z" fill="white"/>
<path d="M87.5142 38.0162H90.5152V39.0697H90.556C91.0047 38.6203 91.4872 38.2796 92.0035 38.0479C92.521 37.8161 93.1084 37.7002 93.7668 37.7002C94.4929 37.7002 95.1712 37.8711 95.8006 38.2152C96.4299 38.5606 96.9415 39.0861 97.332 39.7967C97.7236 40.5049 97.9194 41.3863 97.9194 42.441V49.1834H94.9195V42.8413C94.9195 42.1261 94.7377 41.549 94.374 41.1135C94.0104 40.6781 93.486 40.4592 92.8007 40.4592C92.0874 40.4592 91.5268 40.6676 91.1224 41.0808C90.7168 41.4951 90.5152 42.0687 90.5152 42.798V49.1822H87.5142V38.0151V38.0162Z" fill="white"/>
<path d="M100.774 43.601C100.774 42.4772 100.99 41.4659 101.424 40.5669C101.857 39.6667 102.466 38.9656 103.249 38.4587C104.032 37.953 104.92 37.7014 105.913 37.7014C107.172 37.7014 108.158 38.0385 108.871 38.7127H108.912V33.8034H111.911V49.1845H109.143V48.2153H109.101C108.276 49.0722 107.199 49.5006 105.871 49.5006C104.891 49.5006 104.015 49.2548 103.238 48.7631C102.462 48.2715 101.856 47.5797 101.423 46.6889C100.989 45.7981 100.772 44.768 100.772 43.6022L100.774 43.601ZM108.912 44.3162V42.8635C108.912 42.4421 108.8 42.0488 108.576 41.6824C108.354 41.3172 108.041 41.0234 107.643 40.7975C107.244 40.5739 106.8 40.4604 106.311 40.4604C105.526 40.4604 104.909 40.7448 104.454 41.3137C103.998 41.8826 103.772 42.6446 103.772 43.5998C103.772 44.5409 104.002 45.2995 104.465 45.8742C104.926 46.4501 105.534 46.7381 106.288 46.7381C107.042 46.7381 107.671 46.5028 108.166 46.0322C108.662 45.5617 108.911 44.9881 108.911 44.3138L108.912 44.3162Z" fill="white"/>
<path d="M115.709 46.1926C115.709 45.1531 116.062 44.3455 116.768 43.7695C117.473 43.1948 118.653 42.7722 120.303 42.5053C121.169 42.366 121.761 42.2068 122.076 42.0324C122.392 41.8568 122.548 41.6204 122.548 41.3254C122.548 40.9883 122.393 40.7214 122.086 40.5248C121.78 40.3281 121.359 40.2298 120.828 40.2298C120.226 40.2298 119.705 40.4112 119.265 40.7776C118.824 41.144 118.541 41.6274 118.415 42.2314L115.624 41.5993C115.764 40.8408 116.078 40.1654 116.569 39.5754C117.058 38.9855 117.673 38.5266 118.415 38.1953C119.156 37.8652 119.959 37.7002 120.826 37.7002C122.254 37.7002 123.393 38.1005 124.247 38.9C125.099 39.7018 125.527 40.7694 125.527 42.1027V49.1822H122.841V47.9391H122.799C122.478 48.4307 122.027 48.8123 121.446 49.0862C120.866 49.3601 120.212 49.4971 119.485 49.4971C118.758 49.4971 118.106 49.3578 117.534 49.0769C116.961 48.7959 116.512 48.4026 116.191 47.8969C115.87 47.3901 115.709 46.8224 115.709 46.1903V46.1926ZM122.674 45.0337V43.7695H122.633C122.507 43.9814 122.297 44.1488 122.003 44.2764C121.71 44.4016 121.248 44.5292 120.619 44.6545C119.836 44.8242 119.297 45.0021 119.004 45.1918C118.71 45.3814 118.563 45.6459 118.563 45.9831C118.563 46.305 118.691 46.5508 118.951 46.7205C119.21 46.8891 119.584 46.9734 120.073 46.9734C120.521 46.9734 120.948 46.8856 121.353 46.7088C121.759 46.5321 122.08 46.2944 122.318 45.9936C122.556 45.6928 122.675 45.372 122.675 45.0349L122.674 45.0337Z" fill="white"/>
<path d="M135.386 40.7144V45.2023C135.386 45.5804 135.473 45.8555 135.649 46.0229C135.823 46.1926 136.112 46.2769 136.519 46.2769H139.058V49.1834H136.247C135.016 49.1834 134.065 48.8919 133.395 48.309C132.723 47.7261 132.388 46.8938 132.388 45.8122V40.7144H129.661V38.0163H132.388V35.1718H135.388V38.0163H139.751V40.7144H135.388H135.386Z" fill="white"/>
<path d="M154.183 46.4244V49.1834H143.253V46.4244H147.218V40.7776H143.462V38.0174H150.218V46.4255H154.182L154.183 46.4244ZM147.155 33.2977H150.239V36.2674H147.155V33.2977Z" fill="white"/>
<path d="M157.057 43.601C157.057 42.4491 157.295 41.4272 157.769 40.5353C158.244 39.6433 158.912 38.948 159.774 38.4493C160.633 37.9507 161.616 37.7014 162.72 37.7014C163.839 37.7014 164.829 37.9507 165.689 38.4493C166.548 38.948 167.217 39.6445 167.693 40.5353C168.167 41.4272 168.405 42.4491 168.405 43.601C168.405 44.7528 168.167 45.7735 167.693 46.6667C167.217 47.5586 166.55 48.2528 165.689 48.7514C164.829 49.2501 163.839 49.4994 162.72 49.4994C161.616 49.4994 160.633 49.2501 159.774 48.7514C158.913 48.2528 158.244 47.5575 157.769 46.6667C157.295 45.7735 157.057 44.7516 157.057 43.601ZM165.406 43.601C165.406 42.6177 165.172 41.8486 164.702 41.2926C164.234 40.7378 163.573 40.4604 162.72 40.4604C161.881 40.4604 161.228 40.7378 160.758 41.2926C160.29 41.8486 160.056 42.6177 160.056 43.601C160.056 44.5842 160.289 45.3533 160.758 45.9081C161.227 46.4642 161.881 46.7404 162.72 46.7404C163.559 46.7404 164.216 46.4595 164.692 45.8976C165.167 45.3357 165.405 44.5702 165.405 43.601H165.406Z" fill="white"/>
<path d="M171.596 38.0162H174.595V39.0697H174.637C175.084 38.6203 175.567 38.2796 176.084 38.0479C176.6 37.8161 177.189 37.7002 177.846 37.7002C178.574 37.7002 179.252 37.8711 179.881 38.2152C180.511 38.5606 181.022 39.0861 181.413 39.7967C181.804 40.5049 182 41.3863 182 42.441V49.1834H179V42.8413C179 42.1261 178.818 41.549 178.455 41.1135C178.091 40.6781 177.565 40.4592 176.88 40.4592C176.168 40.4592 175.607 40.6676 175.203 41.0808C174.796 41.4951 174.595 42.0687 174.595 42.798V49.1822H171.596V38.0151V38.0162Z" fill="white"/>
<path d="M16.9714 43.9568V58L0 33.1011L16.9714 43.9568Z" fill="#18ABD3"/>
<path d="M33.9439 33.1011L16.9714 58V43.9568L33.9439 33.1011Z" fill="#6B7ABA"/>
<path d="M33.9439 29.5929L16.9714 19.9065V40.4498L33.9439 29.5929Z" fill="#A566A6"/>
<path d="M33.9439 29.5929L16.9714 0V19.9065L33.9439 29.5929Z" fill="#F08A78"/>
<path d="M16.9714 0V19.9065L0 29.5929L16.9714 0Z" fill="#FFEB5C"/>
<path d="M16.9714 19.9065V40.4498L0 29.5929L16.9714 19.9065Z" fill="#58B36F"/>
</g>
<defs>
<clipPath id="clip0_511_494">
<rect width="182" height="58" fill="white"/>
</clipPath>
</defs>
</svg>
