{
	"asset":{
		"version":"2.0",
		"generator":"Houdini GLTF 2.0 Exporter"
	},
	"accessors":[
		{
			"bufferView":0,
			"componentType":5125,
			"count":95472,
			"type":"SCALAR",
			"min":[0
			],
			"max":[16734
			]
		},
		{
			"bufferView":1,
			"componentType":5126,
			"count":16735,
			"type":"VEC3",
			"min":[-1.00330472,-1.01499057,-1.01196575
			],
			"max":[1.01333785,1.01499057,1.01333773
			]
		},
		{
			"bufferView":2,
			"componentType":5126,
			"count":16735,
			"type":"VEC3",
			"min":[0,0,0.000234860679
			],
			"max":[0,0.0979224071,0.0989999995
			]
		},
		{
			"bufferView":3,
			"componentType":5126,
			"count":16735,
			"type":"VEC2",
			"min":[0,0
			],
			"max":[1.01280439,1
			]
		},
		{
			"bufferView":4,
			"componentType":5126,
			"count":16735,
			"type":"VEC3",
			"min":[-1,-0.999582231,-0.999604344
			],
			"max":[1,0.999809742,0.999655128
			]
		}
	],
	"buffers":[
		{
			"uri":"Eth_planet_data.bin",
			"byteLength":1118228,
			"name":"main_buffer"
		}
	],
	"bufferViews":[
		{
			"buffer":0,
			"byteLength":381888,
			"target":34963
		},
		{
			"buffer":0,
			"byteOffset":381888,
			"byteLength":200820,
			"target":34962
		},
		{
			"buffer":0,
			"byteOffset":582708,
			"byteLength":200820,
			"target":34962
		},
		{
			"buffer":0,
			"byteOffset":783528,
			"byteLength":133880,
			"target":34962
		},
		{
			"buffer":0,
			"byteOffset":917408,
			"byteLength":200820,
			"target":34962
		}
	],
	"nodes":[
		{
			"name":"file2",
			"mesh":0
		}
	],
	"meshes":[
		{
			"primitives":[
				{
					"attributes":{
						"NORMAL":4,
						"COLOR_0":2,
						"TEXCOORD_0":3,
						"POSITION":1
					},
					"indices":0,
					"material":0
				}
			],
			"name":"material3"
		}
	],
	"materials":[
		{
			"name":"principledshader1",
			"pbrMetallicRoughness":{
				"metallicFactor":0,
				"roughnessFactor":0.300000012
			}
		}
	],
	"scenes":[
		{
			"nodes":[0
			]
		}
	],
	"scene":0
}
