{
	"asset":{
		"version":"2.0",
		"generator":"Houdini GLTF 2.0 Exporter"
	},
	"accessors":[
		{
			"bufferView":0,
			"componentType":5125,
			"count":95472,
			"type":"SCALAR",
			"min":[0
			],
			"max":[16531
			]
		},
		{
			"bufferView":1,
			"componentType":5126,
			"count":16532,
			"type":"VEC3",
			"min":[-0.56932205,-0.936988413,-0.469444513
			],
			"max":[0.575856507,0.933533192,0.469444513
			]
		},
		{
			"bufferView":2,
			"componentType":5126,
			"count":16532,
			"type":"VEC3",
			"min":[-0.701262236,-0.616654158,-0.787242591
			],
			"max":[0.692049205,0.867429316,0.787242591
			]
		}
	],
	"buffers":[
		{
			"uri":"Eth_planetMatch_data.bin",
			"byteLength":778656,
			"name":"main_buffer"
		}
	],
	"bufferViews":[
		{
			"buffer":0,
			"byteLength":381888,
			"target":34963
		},
		{
			"buffer":0,
			"byteOffset":381888,
			"byteLength":198384,
			"target":34962
		},
		{
			"buffer":0,
			"byteOffset":580272,
			"byteLength":198384,
			"target":34962
		}
	],
	"nodes":[
		{
			"name":"file2",
			"mesh":0
		}
	],
	"meshes":[
		{
			"primitives":[
				{
					"attributes":{
						"NORMAL":2,
						"POSITION":1
					},
					"indices":0,
					"material":0
				}
			],
			"name":"material2"
		}
	],
	"materials":[
		{
			"name":"principledshader",
			"pbrMetallicRoughness":{
				"baseColorFactor":[0.0114381788,0.0585786365,0.200000003,1
				],
				"metallicFactor":0,
				"roughnessFactor":0.300000012
			}
		}
	],
	"scenes":[
		{
			"nodes":[0
			]
		}
	],
	"scene":0
}
