<svg width="190" height="60" viewBox="0 0 190 60" fill="none" xmlns="http://www.w3.org/2000/svg">
<path d="M46.7041 22.1187C46.7041 20.9126 46.9511 19.8446 47.4452 18.9146C47.9392 17.9846 48.6295 17.2665 49.5159 16.7567C50.4023 16.2482 51.4267 15.9939 52.5892 15.9939C53.7081 15.9939 54.7071 16.2554 55.5862 16.7785C56.4653 17.3017 57.1507 18.0355 57.646 18.9788C58.1401 19.9233 58.3871 20.9998 58.3871 22.2047V23.1214H49.821C49.8646 23.8479 50.1407 24.4364 50.6493 24.8869C51.1579 25.3373 51.8263 25.5626 52.6546 25.5626C53.2358 25.5626 53.7735 25.4366 54.2675 25.1811C54.7616 24.9281 55.2992 24.4885 55.8805 23.8624L57.8204 25.8471C57.1519 26.587 56.3818 27.1658 55.5099 27.58C54.6381 27.9941 53.6863 28.2012 52.6546 28.2012C51.4776 28.2012 50.4386 27.9469 49.5377 27.4383C48.6367 26.9297 47.9392 26.2141 47.4452 25.2925C46.9511 24.3686 46.7041 23.3115 46.7041 22.1211V22.1187ZM55.2484 20.8545C55.1902 20.2151 54.9105 19.6848 54.4092 19.2634C53.9079 18.842 53.3012 18.6325 52.5892 18.6325C51.8481 18.6325 51.2378 18.8359 50.7583 19.2428C50.2787 19.6496 49.9809 20.1873 49.8646 20.8557H55.2484V20.8545Z" fill="white"/>
<path d="M67.8687 19.1108V23.7534C67.8687 24.1458 67.9595 24.4291 68.1411 24.6035C68.3228 24.7779 68.6243 24.8651 69.0457 24.8651H71.6831V27.873H68.7623C67.4836 27.873 66.4955 27.5715 65.798 26.9684C65.1005 26.3654 64.7518 25.5044 64.7518 24.3855V19.1108H61.9182V16.3208H64.7518V13.377H67.8687V16.3208H72.4024V19.1108H67.8687Z" fill="white"/>
<path d="M76.3691 11.9615H79.4861V17.3888H79.5296C80.3434 16.4589 81.455 15.9939 82.8645 15.9939C83.7073 15.9939 84.4557 16.1985 85.1096 16.6042C85.7635 17.0122 86.2709 17.5862 86.6353 18.3273C86.9986 19.0672 87.1803 19.9245 87.1803 20.8993V27.8742H84.0633V21.3134C84.0633 20.5433 83.8672 19.9403 83.4748 19.5043C83.0825 19.0684 82.5448 18.8504 81.8619 18.8504C81.1208 18.8504 80.5396 19.0648 80.1182 19.4934C79.6968 19.9221 79.4861 20.5142 79.4861 21.2698V27.8742H76.3691V11.9615Z" fill="white"/>
<path d="M90.3845 22.1187C90.3845 20.9126 90.6315 19.8446 91.1256 18.9146C91.6197 17.9846 92.3099 17.2665 93.1963 16.7567C94.0815 16.2482 95.1059 15.9939 96.2696 15.9939C97.3885 15.9939 98.3863 16.2554 99.2666 16.7785C100.146 17.3017 100.832 18.0355 101.326 18.9788C101.819 19.9233 102.068 20.9998 102.068 22.2047V23.1214H93.5014C93.545 23.8479 93.8211 24.4364 94.3297 24.8869C94.8383 25.3373 95.5079 25.5626 96.335 25.5626C96.915 25.5626 97.4539 25.4366 97.9479 25.1811C98.442 24.9281 98.9797 24.4885 99.5609 23.8624L101.501 25.8471C100.832 26.587 100.062 27.1658 99.1916 27.58C98.3185 27.9941 97.3667 28.2012 96.3362 28.2012C95.1592 28.2012 94.1202 27.9469 93.2193 27.4383C92.3184 26.9297 91.6209 26.2141 91.1268 25.2925C90.6328 24.3686 90.3857 23.3115 90.3857 22.1211L90.3845 22.1187ZM98.9288 20.8545C98.8707 20.2151 98.5922 19.6848 98.0908 19.2634C97.5895 18.842 96.9828 18.6325 96.2708 18.6325C95.5297 18.6325 94.9194 18.8359 94.4387 19.2428C93.9592 19.6496 93.6613 20.1873 93.5462 20.8557H98.9288V20.8545Z" fill="white"/>
<path d="M106.34 16.3208H109.326V17.3888H109.369C109.863 16.8948 110.376 16.5387 110.907 16.3208C111.438 16.1016 112.043 15.9926 112.727 15.9926C113.73 15.9926 114.594 16.2869 115.321 16.8754C116.048 17.4627 116.556 18.2667 116.847 19.2839L113.926 20.243C113.593 19.2984 112.902 18.825 111.855 18.825C111.072 18.825 110.475 19.0538 110.068 19.5116C109.661 19.9693 109.458 20.5978 109.458 21.397V27.8718H106.341V16.3208H106.34Z" fill="white"/>
<path d="M119.505 22.1187C119.505 20.9126 119.752 19.8446 120.245 18.9146C120.739 17.9846 121.43 17.2665 122.315 16.7567C123.202 16.2482 124.226 15.9939 125.389 15.9939C126.507 15.9939 127.506 16.2554 128.387 16.7785C129.266 17.3017 129.952 18.0355 130.447 18.9788C130.939 19.9233 131.186 20.9998 131.186 22.2047V23.1214H122.622C122.664 23.8479 122.941 24.4364 123.45 24.8869C123.958 25.3373 124.627 25.5626 125.455 25.5626C126.035 25.5626 126.574 25.4366 127.068 25.1811C127.561 24.9281 128.1 24.4885 128.681 23.8624L130.621 25.8471C129.952 26.587 129.182 27.1658 128.31 27.58C127.439 27.9941 126.487 28.2012 125.456 28.2012C124.278 28.2012 123.24 27.9469 122.339 27.4383C121.438 26.9297 120.741 26.2141 120.246 25.2925C119.753 24.3686 119.506 23.3115 119.506 22.1211L119.505 22.1187ZM128.049 20.8545C127.991 20.2151 127.711 19.6848 127.21 19.2634C126.71 18.842 126.102 18.6325 125.39 18.6325C124.65 18.6325 124.04 18.8359 123.559 19.2428C123.079 19.6496 122.781 20.1873 122.665 20.8557H128.049V20.8545Z" fill="white"/>
<path d="M134.718 23.9496V16.3208H137.833V23.2303C137.833 24.6398 138.531 25.3446 139.927 25.3446C140.552 25.3446 141.049 25.152 141.42 24.7658C141.791 24.3819 141.976 23.8697 141.976 23.2291V16.3196H145.092V27.8718H142.105V26.8461H142.062C141.742 27.2542 141.303 27.5799 140.743 27.8282C140.184 28.0764 139.599 28.1987 138.988 28.1987C137.623 28.1987 136.569 27.8246 135.829 27.0762C135.088 26.3279 134.718 25.2853 134.718 23.9484V23.9496Z" fill="white"/>
<path d="M148.297 16.3208H151.044V17.3234H151.088C151.334 16.9311 151.651 16.6296 152.035 16.4189C152.42 16.2082 152.845 16.1016 153.311 16.1016C154.227 16.1016 154.959 16.5303 155.512 17.3876H155.555C156.135 16.5303 156.936 16.1016 157.953 16.1016C158.794 16.1016 159.479 16.3995 160 16.9953C160.525 17.5911 160.785 18.3685 160.785 19.3275V27.873H157.908V19.8736C157.908 19.5406 157.821 19.2863 157.646 19.1108C157.471 18.9364 157.224 18.8492 156.905 18.8492C156.6 18.8492 156.357 18.9473 156.174 19.1435C155.993 19.3396 155.901 19.6048 155.901 19.939V27.873H153.177V19.8736C153.177 19.554 153.093 19.3033 152.926 19.1217C152.759 18.9412 152.523 18.8492 152.218 18.8492C151.898 18.8492 151.643 18.9473 151.455 19.1435C151.266 19.3396 151.172 19.6048 151.172 19.939V27.873H148.294V16.3208H148.297Z" fill="white"/>
<path d="M50.1914 43.4043H47.1399V40.6143H50.1914V38.9142C50.1914 37.897 50.5293 37.0942 51.205 36.5057C51.8807 35.9184 52.8143 35.6229 54.0058 35.6229H57.3625V38.3911H54.3764C54.0712 38.3911 53.8387 38.4698 53.6789 38.6296C53.519 38.7907 53.4391 39.0147 53.4391 39.3065V40.6143H58.06V43.4043H53.4391V50.8805H50.1914V43.4043Z" fill="white"/>
<path d="M61.2642 45.1045C61.2642 43.9129 61.5112 42.8558 62.0052 41.933C62.4993 41.0103 63.1932 40.291 64.0868 39.7752C64.9805 39.2593 66.0013 39.0014 67.1492 39.0014C68.3117 39.0014 69.3398 39.2593 70.2335 39.7752C71.1271 40.291 71.821 41.0115 72.315 41.933C72.8091 42.8558 73.0561 43.9129 73.0561 45.1045C73.0561 46.296 72.8091 47.3519 72.315 48.2759C71.821 49.1986 71.1271 49.9167 70.2335 50.4325C69.3398 50.9484 68.3117 51.2063 67.1492 51.2063C66.0013 51.2063 64.9805 50.9484 64.0868 50.4325C63.1932 49.9167 62.4993 49.1974 62.0052 48.2759C61.5112 47.3519 61.2642 46.2948 61.2642 45.1045ZM69.9392 45.1045C69.9392 44.0873 69.6958 43.2917 69.209 42.7165C68.7222 42.1425 68.0356 41.8555 67.1492 41.8555C66.2774 41.8555 65.5981 42.1425 65.1113 42.7165C64.6245 43.2917 64.3811 44.0873 64.3811 45.1045C64.3811 46.1216 64.6245 46.9172 65.1113 47.4912C65.5981 48.0664 66.2774 48.3521 67.1492 48.3521C68.0211 48.3521 68.7041 48.0615 69.1981 47.4803C69.6922 46.9002 69.9392 46.1071 69.9392 45.1045Z" fill="white"/>
<path d="M76.4771 46.9559V39.3271H79.594V46.2367C79.594 47.6462 80.2915 48.3509 81.6864 48.3509C82.3113 48.3509 82.809 48.1584 83.1795 47.7733C83.5501 47.3882 83.7353 46.876 83.7353 46.2354V39.3259H86.8522V50.8781H83.8661V49.8537H83.8225C83.5028 50.2606 83.0633 50.5863 82.5038 50.8345C81.9444 51.0828 81.3595 51.2051 80.7492 51.2051C79.3833 51.2051 78.3298 50.8309 77.5887 50.0826C76.8476 49.3342 76.4771 48.2916 76.4771 46.9547V46.9559Z" fill="white"/>
<path d="M90.9282 39.3271H94.0464V40.4169H94.0887C94.5549 39.9519 95.0563 39.5996 95.5927 39.3598C96.1304 39.12 96.7407 39.0002 97.4248 39.0002C98.1792 39.0002 98.884 39.1769 99.5379 39.533C100.192 39.8902 100.723 40.4339 101.129 41.1689C101.536 41.9015 101.739 42.8133 101.739 43.9044V50.8793H98.6224V44.3185C98.6224 43.5786 98.4335 42.9817 98.0557 42.5312C97.6779 42.0807 97.133 41.8543 96.421 41.8543C95.6799 41.8543 95.0974 42.0698 94.6772 42.4973C94.2558 42.926 94.0464 43.5193 94.0464 44.2737V50.8781H90.9282V39.3259V39.3271Z" fill="white"/>
<path d="M104.705 45.1044C104.705 43.9419 104.93 42.8957 105.381 41.9657C105.831 41.0345 106.463 40.3092 107.277 39.7848C108.091 39.2617 109.013 39.0014 110.045 39.0014C111.353 39.0014 112.377 39.3501 113.118 40.0476H113.161V34.969H116.276V50.8805H113.4V49.8779H113.357C112.5 50.7643 111.381 51.2075 110.001 51.2075C108.983 51.2075 108.072 50.9532 107.266 50.4446C106.459 49.936 105.83 49.2203 105.379 48.2988C104.929 47.3773 104.704 46.3117 104.704 45.1056L104.705 45.1044ZM113.161 45.8443V44.3415C113.161 43.9056 113.044 43.4987 112.812 43.1197C112.581 42.7419 112.256 42.438 111.842 42.2043C111.428 41.973 110.967 41.8555 110.458 41.8555C109.643 41.8555 109.001 42.1498 108.529 42.7383C108.055 43.3268 107.821 44.1151 107.821 45.1032C107.821 46.0768 108.059 46.8615 108.54 47.456C109.019 48.0518 109.651 48.3497 110.435 48.3497C111.218 48.3497 111.871 48.1063 112.386 47.6195C112.902 47.1327 113.159 46.5394 113.159 45.8419L113.161 45.8443Z" fill="white"/>
<path d="M120.223 47.7854C120.223 46.7101 120.59 45.8746 121.324 45.2788C122.056 44.6842 123.282 44.2471 124.996 43.971C125.896 43.8269 126.511 43.6622 126.838 43.4818C127.166 43.3001 127.329 43.0555 127.329 42.7504C127.329 42.4016 127.168 42.1255 126.849 41.9221C126.531 41.7187 126.093 41.617 125.541 41.617C124.916 41.617 124.375 41.8046 123.917 42.1837C123.46 42.5627 123.165 43.0628 123.035 43.6876L120.135 43.0337C120.28 42.2491 120.607 41.5504 121.117 40.94C121.625 40.3297 122.263 39.8551 123.035 39.5124C123.805 39.1709 124.639 39.0002 125.54 39.0002C127.023 39.0002 128.207 39.4143 129.094 40.2413C129.979 41.0708 130.424 42.1752 130.424 43.5544V50.8781H127.634V49.5921H127.59C127.256 50.1007 126.787 50.4954 126.184 50.7788C125.581 51.0621 124.902 51.2038 124.146 51.2038C123.391 51.2038 122.714 51.0597 122.119 50.7691C121.523 50.4785 121.057 50.0716 120.724 49.5485C120.39 49.0242 120.223 48.4369 120.223 47.783V47.7854ZM127.459 46.5866V45.2788H127.417C127.286 45.498 127.068 45.6711 126.763 45.8031C126.458 45.9327 125.978 46.0647 125.325 46.1942C124.511 46.3698 123.951 46.5539 123.646 46.7501C123.341 46.9462 123.188 47.2199 123.188 47.5686C123.188 47.9016 123.322 48.1559 123.592 48.3315C123.861 48.5059 124.249 48.5931 124.758 48.5931C125.223 48.5931 125.666 48.5023 126.087 48.3194C126.509 48.1366 126.843 47.8907 127.09 47.5795C127.337 47.2683 127.461 46.9365 127.461 46.5878L127.459 46.5866Z" fill="white"/>
<path d="M140.668 42.1183V46.761C140.668 47.1521 140.758 47.4367 140.94 47.6098C141.122 47.7854 141.422 47.8726 141.845 47.8726H144.482V50.8793H141.562C140.283 50.8793 139.295 50.5778 138.599 49.9748C137.901 49.3717 137.552 48.5108 137.552 47.3919V42.1183H134.719V39.3271H137.552V36.3846H140.669V39.3271H145.203V42.1183H140.669H140.668Z" fill="white"/>
<path d="M160.198 48.0252V50.8793H148.842V48.0252H152.961V42.1837H149.059V39.3283H156.078V48.0264H160.197L160.198 48.0252ZM152.896 34.4459H156.1V37.518H152.896V34.4459Z" fill="white"/>
<path d="M163.184 45.1045C163.184 43.9129 163.431 42.8558 163.924 41.933C164.418 41.0103 165.112 40.291 166.007 39.7752C166.899 39.2593 167.921 39.0014 169.068 39.0014C170.23 39.0014 171.26 39.2593 172.153 39.7752C173.046 40.291 173.741 41.0115 174.235 41.933C174.728 42.8558 174.975 43.9129 174.975 45.1045C174.975 46.296 174.728 47.3519 174.235 48.2759C173.741 49.1986 173.047 49.9167 172.153 50.4325C171.26 50.9484 170.23 51.2063 169.068 51.2063C167.921 51.2063 166.899 50.9484 166.007 50.4325C165.113 49.9167 164.418 49.1974 163.924 48.2759C163.431 47.3519 163.184 46.2948 163.184 45.1045ZM171.859 45.1045C171.859 44.0873 171.616 43.2917 171.128 42.7165C170.641 42.1425 169.954 41.8555 169.068 41.8555C168.196 41.8555 167.518 42.1425 167.03 42.7165C166.543 43.2917 166.3 44.0873 166.3 45.1045C166.3 46.1216 166.542 46.9172 167.03 47.4912C167.517 48.0664 168.196 48.3521 169.068 48.3521C169.94 48.3521 170.623 48.0615 171.117 47.4803C171.611 46.899 171.858 46.1071 171.858 45.1045H171.859Z" fill="white"/>
<path d="M178.29 39.3271H181.406V40.4169H181.45C181.915 39.9519 182.416 39.5996 182.954 39.3598C183.49 39.12 184.102 39.0002 184.784 39.0002C185.54 39.0002 186.245 39.1769 186.899 39.533C187.553 39.8902 188.084 40.4339 188.49 41.1689C188.897 41.9015 189.1 42.8133 189.1 43.9044V50.8793H185.983V44.3185C185.983 43.5786 185.794 42.9817 185.417 42.5312C185.039 42.0807 184.493 41.8543 183.781 41.8543C183.041 41.8543 182.458 42.0698 182.038 42.4973C181.615 42.926 181.406 43.5193 181.406 44.2737V50.8781H178.29V39.3259V39.3271Z" fill="white"/>
<path opacity="0.5" d="M17.6335 45.4726V60L0 34.2425L17.6335 45.4726Z" fill="white"/>
<path opacity="0.25" d="M35.2682 34.2425L17.6335 60V45.4726L35.2682 34.2425Z" fill="white"/>
<path opacity="0.5" d="M35.2682 30.6133L17.6335 20.5929V41.8446L35.2682 30.6133Z" fill="white"/>
<path opacity="0.75" d="M35.2682 30.6133L17.6335 0V20.5929L35.2682 30.6133Z" fill="white"/>
<path d="M17.6335 0V20.5929L0 30.6133L17.6335 0Z" fill="white"/>
<path opacity="0.75" d="M17.6335 20.5929V41.8446L0 30.6133L17.6335 20.5929Z" fill="white"/>
</svg>
